<?xml version="1.0" encoding="UTF-8"?>
<svg id="a" data-name="Layer 1" xmlns="http://www.w3.org/2000/svg" viewBox="0 0 283.46 134.4">
  <g id="b" data-name="cluster">
    <g>
      <path d="m23.02,117.47h-5.45c-.1-.71-.3-1.33-.61-1.89-.31-.55-.7-1.02-1.18-1.41-.48-.39-1.04-.69-1.66-.9-.63-.21-1.31-.31-2.04-.31-1.32,0-2.47.33-3.45.98-.98.65-1.74,1.6-2.28,2.84-.54,1.24-.81,2.74-.81,4.51s.27,3.34.82,4.58c.54,1.24,1.3,2.17,2.28,2.8.98.63,2.11.95,3.4.95.72,0,1.39-.09,2.01-.29.62-.19,1.17-.47,1.65-.84.48-.37.88-.82,1.2-1.35.32-.53.54-1.14.67-1.82l5.45.03c-.14,1.17-.49,2.3-1.05,3.38-.56,1.08-1.31,2.05-2.25,2.9s-2.06,1.52-3.36,2.02c-1.3.49-2.77.74-4.4.74-2.27,0-4.3-.51-6.09-1.54-1.79-1.03-3.2-2.52-4.23-4.47-1.03-1.95-1.55-4.31-1.55-7.08s.52-5.15,1.57-7.1c1.05-1.95,2.46-3.44,4.26-4.46s3.81-1.54,6.05-1.54c1.48,0,2.85.21,4.11.62,1.27.41,2.39,1.02,3.37,1.81s1.78,1.76,2.4,2.91c.62,1.15,1.01,2.46,1.19,3.93Z" style="fill: #1b657c; stroke-width: 0px;"/>
      <path d="m49.73,117.47h-5.45c-.1-.71-.3-1.33-.61-1.89-.31-.55-.7-1.02-1.18-1.41-.48-.39-1.04-.69-1.66-.9-.63-.21-1.3-.31-2.03-.31-1.32,0-2.47.33-3.45.98-.98.65-1.74,1.6-2.28,2.84s-.81,2.74-.81,4.51.27,3.34.82,4.58c.54,1.24,1.31,2.17,2.28,2.8.98.63,2.11.95,3.4.95.72,0,1.39-.09,2.01-.29.62-.19,1.17-.47,1.65-.84.48-.37.88-.82,1.2-1.35.32-.53.54-1.14.67-1.82l5.45.03c-.14,1.17-.49,2.3-1.05,3.38-.56,1.08-1.31,2.05-2.25,2.9s-2.06,1.52-3.36,2.02-2.77.74-4.4.74c-2.27,0-4.31-.51-6.09-1.54s-3.2-2.52-4.23-4.47c-1.03-1.95-1.55-4.31-1.55-7.08s.52-5.15,1.57-7.1c1.05-1.95,2.46-3.44,4.26-4.46,1.79-1.02,3.81-1.54,6.05-1.54,1.48,0,2.85.21,4.11.62s2.39,1.02,3.37,1.81c.98.79,1.78,1.76,2.4,2.91.62,1.15,1.01,2.46,1.19,3.93Z" style="fill: #1b657c; stroke-width: 0px;"/>
      <path d="m76.45,117.47h-5.45c-.1-.71-.3-1.33-.61-1.89-.31-.55-.7-1.02-1.18-1.41-.48-.39-1.04-.69-1.66-.9-.63-.21-1.31-.31-2.03-.31-1.32,0-2.47.33-3.45.98-.98.65-1.74,1.6-2.28,2.84-.54,1.24-.81,2.74-.81,4.51s.27,3.34.82,4.58c.54,1.24,1.31,2.17,2.28,2.8.98.63,2.11.95,3.4.95.72,0,1.39-.09,2.01-.29.62-.19,1.17-.47,1.65-.84.48-.37.88-.82,1.2-1.35.32-.53.54-1.14.67-1.82l5.45.03c-.14,1.17-.49,2.3-1.05,3.38-.56,1.08-1.31,2.05-2.25,2.9s-2.06,1.52-3.36,2.02c-1.3.49-2.77.74-4.4.74-2.27,0-4.31-.51-6.09-1.54-1.79-1.03-3.2-2.52-4.23-4.47-1.03-1.95-1.55-4.31-1.55-7.08s.52-5.15,1.57-7.1c1.05-1.95,2.46-3.44,4.26-4.46s3.81-1.54,6.05-1.54c1.48,0,2.85.21,4.11.62s2.39,1.02,3.37,1.81c.98.79,1.78,1.76,2.4,2.91.62,1.15,1.01,2.46,1.19,3.93Z" style="fill: #1b657c; stroke-width: 0px;"/>
      <path d="m80.67,108.54h6.65l7.02,17.13h.3l7.02-17.13h6.65v25.49h-5.23v-16.59h-.21l-6.6,16.47h-3.56l-6.6-16.53h-.21v16.66h-5.23v-25.49Z" style="fill: #1b657c; stroke-width: 0px;"/>
      <path d="m144.06,117.47h-5.45c-.1-.71-.3-1.33-.61-1.89-.31-.55-.7-1.02-1.18-1.41-.48-.39-1.04-.69-1.66-.9-.63-.21-1.31-.31-2.04-.31-1.32,0-2.47.33-3.45.98-.98.65-1.74,1.6-2.28,2.84-.54,1.24-.81,2.74-.81,4.51s.27,3.34.82,4.58c.54,1.24,1.31,2.17,2.28,2.8.98.63,2.11.95,3.4.95.72,0,1.39-.09,2.01-.29.62-.19,1.17-.47,1.65-.84.48-.37.88-.82,1.2-1.35.32-.53.54-1.14.67-1.82l5.45.03c-.14,1.17-.49,2.3-1.05,3.38-.56,1.08-1.31,2.05-2.25,2.9-.94.85-2.06,1.52-3.36,2.02s-2.77.74-4.4.74c-2.27,0-4.31-.51-6.09-1.54-1.79-1.03-3.2-2.52-4.23-4.47-1.03-1.95-1.55-4.31-1.55-7.08s.52-5.15,1.57-7.1c1.05-1.95,2.46-3.44,4.26-4.46s3.81-1.54,6.05-1.54c1.48,0,2.85.21,4.11.62s2.39,1.02,3.37,1.81,1.78,1.76,2.4,2.91c.62,1.15,1.01,2.46,1.19,3.93Z" style="fill: #1b657c; stroke-width: 0px;"/>
      <path d="m148.29,134.03v-25.49h5.39v21.05h10.93v4.44h-16.32Z" style="fill: #1b657c; stroke-width: 0px;"/>
      <path d="m184.28,108.54h5.39v16.56c0,1.86-.44,3.49-1.33,4.88s-2.12,2.48-3.7,3.26c-1.59.78-3.43,1.16-5.54,1.16s-3.97-.39-5.55-1.16c-1.59-.78-2.82-1.86-3.7-3.26-.88-1.39-1.32-3.02-1.32-4.88v-16.56h5.39v16.1c0,.97.21,1.83.64,2.59.43.76,1.03,1.35,1.81,1.78.78.43,1.69.65,2.73.65s1.96-.22,2.73-.65c.78-.43,1.38-1.02,1.8-1.78.43-.75.64-1.62.64-2.59v-16.1Z" style="fill: #1b657c; stroke-width: 0px;"/>
      <path d="m208.28,115.87c-.1-1-.53-1.78-1.28-2.34-.75-.56-1.78-.83-3.07-.83-.88,0-1.62.12-2.23.37-.61.24-1.07.58-1.39,1.02-.32.43-.48.92-.48,1.47-.02.46.08.85.29,1.2.21.34.5.63.88.88.37.24.8.46,1.29.63s1.01.33,1.57.45l2.29.55c1.11.25,2.13.58,3.06,1,.93.41,1.73.93,2.42,1.53.68.61,1.21,1.32,1.59,2.14.38.82.57,1.76.58,2.83,0,1.56-.4,2.91-1.19,4.05-.78,1.14-1.91,2.02-3.39,2.65-1.47.63-3.25.94-5.32.94s-3.85-.32-5.37-.95c-1.52-.63-2.71-1.57-3.56-2.81-.85-1.24-1.3-2.78-1.34-4.61h5.22c.06.85.3,1.57.74,2.14.43.57,1.02,1,1.75,1.28.73.29,1.57.43,2.5.43s1.71-.13,2.38-.4c.68-.26,1.2-.63,1.58-1.11s.56-1.02.56-1.63c0-.57-.17-1.05-.5-1.44-.34-.39-.83-.72-1.47-1-.64-.27-1.43-.52-2.36-.75l-2.78-.7c-2.15-.52-3.85-1.34-5.09-2.45-1.24-1.11-1.86-2.61-1.85-4.49,0-1.54.4-2.89,1.24-4.05.83-1.15,1.98-2.05,3.44-2.7,1.46-.65,3.12-.97,4.98-.97s3.55.32,4.96.97c1.41.65,2.52,1.55,3.3,2.7s1.2,2.49,1.22,4.01h-5.17Z" style="fill: #1b657c; stroke-width: 0px;"/>
      <path d="m216.78,112.98v-4.44h20.94v4.44h-7.81v21.05h-5.33v-21.05h-7.81Z" style="fill: #1b657c; stroke-width: 0px;"/>
      <path d="m241.53,134.03v-25.49h17.18v4.44h-11.79v6.07h10.9v4.44h-10.9v6.09h11.84v4.44h-17.23Z" style="fill: #1b657c; stroke-width: 0px;"/>
      <path d="m278.06,124.12c.08-.03.16-.06.23-.1,1.39-.64,2.44-1.57,3.17-2.79s1.1-2.67,1.1-4.36-.36-3.15-1.08-4.4c-.72-1.25-1.76-2.22-3.13-2.91-1.36-.68-3-1.02-4.93-1.02h-10.06v25.49h5.39v-9.04h3.93l4.83,9.04h5.95l-5.41-9.91Zm-9.31-11.17h3.64c1.03,0,1.9.15,2.58.46.69.3,1.19.74,1.53,1.33.34.57.51,1.29.51,2.14s-.18,1.54-.51,2.1c-.34.57-.84.99-1.52,1.27-.68.28-1.54.42-2.57.42h-3.66v-7.72Z" style="fill: #1b657c; stroke-width: 0px;"/>
    </g>
    <path d="m135.93,97.87c-.41,0-.8-.17-1.07-.47-.28-.3-.42-.71-.38-1.12l1.13-12.76c.17-1.93,1.44-3.93,2.37-5.39.21-.33.47-.74.59-.96-.03-.52-.1-1.27-.17-2.11-.7-7.69-1.1-15.36,2.25-17.42.7-.43,1.03-1,1.08-1.86.21-3.89-5.51-10.92-7.98-12.84-1.4-1.09-.91-3.14-.33-5.52.35-1.43,1-4.1.4-4.7-.21-.22-.99-.34-2.47.02-2.93.71-3.73,1.57-3.94,2.01-.38.8.25,2.14.87,3.44.77,1.62,1.64,3.46.98,5.25-.4,1.09-1.31,1.96-2.71,2.59-4.3,1.94-5.07,7.44-5.81,12.75-.06.46-.13.92-.19,1.37-.07.47-.14.92-.21,1.36-.57,3.55-.71,5.05,1.47,6.69,3.07,2.3,2.92,4.4,2.77,6.43-.07,1-.15,2.04.1,3.36.23,1.2.52,2.65.84,4.18.88,4.28,1.99,9.62,2.42,14.11.04.41-.1.82-.38,1.13-.28.3-.68.49-1.09.48l-15.73-.1c-.59,0-1.13-.37-1.35-.92-.25-.62-.9-1.97-1.37-2.95-.37-.76-.58-1.21-.68-1.44-.17-.4-.15-.85.05-1.23.32-.62.73-1.1,1.18-1.51-.88-8.09.7-17.51,2.24-26.63,1.79-10.64,3.65-21.64,1.46-30.14-.12-.47,0-.96.32-1.33.38-.44.69-.76,1.08-1.06-.33-1.23-.59-2.43-.84-3.6-.63-2.89-1.23-5.62-2.63-8.2-.76-.31-1.77-.56-2.82-.83-3.47-.87-8.72-2.19-7.9-7.78.01-.08.03-.16.05-.23.9-2.8.88-5.02-.05-6.08-.79-.9-2.3-1.01-3.69-.87-.28,2.03-.17,3.7-.04,5.59.13,1.9.28,4.06.05,6.95-.03.42-.25.8-.58,1.05-6.41,4.8-11.24,5.77-14.35,2.88-.45-.42-.59-1.08-.35-1.65,2.6-6.04,1.84-9.52.26-10.77-.83-.65-1.89-.67-2.71-.06-1.09.82-1.77,2.9-.41,6.26.88,2.18,1.03,3.91.44,5.3-.77,1.83-2.54,2.54-4.09,3.17-1.55.63-2.51,1.06-2.79,2.01-.81,2.8-.37,4.1.29,6.08.31.92.65,1.96.92,3.26,2.5,12.35,2.5,33.82-1.41,45.77,2.84,2.63,8.93,10.38,7.97,17.68-.1.73-.72,1.27-1.45,1.27-8.16,0-13.13-1.35-16.13-4.36-3.93-3.96-3.9-10.14-3.85-18.7.01-1.84.02-3.74,0-5.78,0-.67.44-1.25,1.06-1.42.22-14.19.18-15.26,0-19.49v-.28s-.01-.09,0-.14c.13-2.2,1.4-4.2,2.64-6.13,1.36-2.13,2.65-4.14,2.15-5.98-.62-2.3-1.05-4.38-1.46-6.39-.64-3.14-1.24-6.11-2.53-9.41-.17-.44-.36-.95-.56-1.5-.98-2.67-2.8-7.65-4.77-7.95-.8-.12-1.89.67-3.09,2.24-1.42,1.86-.92,3.76.07,6.66,1.03,3.03,2.44,7.19-2.53,10.1-.69.4-1.57.18-1.99-.5-.91-1.49-2.16-2.19-3.93-2.2-.47,0-.92-.23-1.19-.62-.27-.39-.34-.89-.18-1.33,1.02-2.83-.12-4.33-.65-4.85-.64-.61-1.48-.89-2.05-.66-.56.23-.7.96-.72,1.53-.02.49.67,1.55,1.08,2.18.66,1.01,1.23,1.89,1.07,2.85-.35,2.17-1.11,3.3-1.72,4.2-.7,1.05-1.12,1.68-.74,4.15.32,2.08,1.28,3.92,2.3,5.86,1.38,2.65,2.82,5.38,2.64,8.87l-1,19.55c1.18.11,2.62.08,3.26-.08.44-.11.9,0,1.25.27.35.28.56.7.56,1.15,0,1.36.05,2.88.11,4.49.32,9.2.71,20.66-7.55,23.61-.16.06-.32.09-.49.09h-11.8c-.74,0-1.37-.56-1.45-1.3-.29-2.61-.84-4.08-1.37-5.51-.95-2.57-1.77-4.79-.73-11.45.09-.59.53-1.06,1.11-1.2.29-.07.57-.09.84-.09-.28-4.54,0-9.24.27-13.8.46-7.64.93-15.54-1.27-22.57-.21-.68.1-1.42.74-1.74,2.32-1.17,3.97-5.54,3.67-9.74-.13-1.78-.82-6.06-4.54-7.32-.33-.11-.6-.33-.78-.62-.53-.11-1-.33-1.41-.66-1.65-1.32-1.68-3.85-1.72-6.52-.05-3.53-.23-5.88-2.19-6.31-1.31-.28-2.29-.19-2.91.27-1.31.96-1.56,3.77-1.79,6.24-.27,3.02-.61,6.71-3.39,7.49-.31.88-.84,2.03-1.6,3.61-1.73,3.63-4.62,9.71-3.14,12.08.48.78,1.58,1.19,3.26,1.21.43,0,.83.2,1.11.53.27.33.39.76.31,1.18-1.7,9.71-4.84,27.6-2.36,36.71,1.18.4,2.91.4,4.46.4.23,0,.47,0,.7,0,.6,0,1.14.38,1.35.94,1.38,3.62,2.15,7.4,2.3,11.24.01.37-.11.72-.34.99.1,1.61-.06,3.23-.46,4.83-.16.65-.75,1.1-1.41,1.1H0v-2.92h12.87c.2-1.19.22-2.39.08-3.59-.03-.24,0-.49.09-.71.06-.14.14-.3.26-.44-.19-2.89-.77-5.75-1.72-8.51-2.14,0-4.32-.06-6.02-.97-.34-.18-.59-.48-.7-.85-2.88-9.1-.02-26.69,1.81-37.16-1.85-.31-3.19-1.13-4-2.44-2.32-3.73.74-10.18,2.98-14.88.73-1.53,1.55-3.27,1.62-3.82.08-.74.7-1.3,1.45-1.3,1.03,0,1.34-1.54,1.65-4.99.28-3.09.6-6.59,2.97-8.33,1.33-.98,3.1-1.23,5.26-.77,4.38.96,4.44,5.68,4.49,9.13.02,1.61.05,3.82.63,4.28.16.13.53.14,1.03.04.44-.09.9.03,1.25.32.32.28.51.68.51,1.1,2.92,1.64,4.72,4.91,5.03,9.21.3,4.3-1.06,9.49-4.22,11.89,2,7.24,1.54,15.02,1.09,22.54-.29,4.93-.6,10.03-.17,14.79.05.58-.25,1.14-.76,1.42-.49.26-1.02.32-1.5.33-.66,4.99-.03,6.7.75,8.82.47,1.28,1,2.71,1.36,4.9h10.26c6.02-2.4,5.67-12.52,5.39-20.67-.04-1.02-.07-2.01-.09-2.96-1.35.06-2.97-.04-4.08-.34-.66-.18-1.11-.8-1.08-1.48l1.07-20.85c.14-2.69-1.05-4.96-2.31-7.36-1.08-2.07-2.2-4.2-2.6-6.77-.52-3.34.17-4.68,1.2-6.22.5-.74.96-1.44,1.23-2.84-.11-.24-.4-.68-.6-.99-.71-1.1-1.6-2.46-1.55-3.88.07-2,1-3.51,2.55-4.13,1.65-.67,3.68-.17,5.17,1.26,1.59,1.53,2.23,3.77,1.83,6.19,1.43.33,2.66,1.05,3.65,2.15,1.6-1.43,1.15-3.06.19-5.89-.93-2.74-2.09-6.14.38-9.38,1.93-2.52,3.89-3.65,5.85-3.35,3.69.56,5.65,5.92,7.08,9.83.19.53.37,1.01.54,1.44,1.38,3.53,2,6.62,2.67,9.89.4,1.97.81,4,1.41,6.21.84,3.1-.94,5.87-2.5,8.32-1.06,1.66-2.07,3.24-2.18,4.66v.21c.18,4.39.23,5.44-.02,20.62-.01.64-.44,1.2-1.04,1.38.01,1.69,0,3.28,0,4.83-.05,7.86-.08,13.53,3,16.63,2.22,2.23,6.27,3.35,12.68,3.48-.05-6.4-6.27-13.34-7.52-14.26-.28-.15-.51-.38-.65-.67-.17-.35-.19-.76-.05-1.12,4.07-11.27,4.12-32.85,1.62-45.16-.23-1.13-.53-2.04-.82-2.91-.71-2.13-1.39-4.15-.33-7.81.68-2.37,2.8-3.23,4.5-3.91,1.18-.48,2.2-.89,2.5-1.6.26-.62.1-1.68-.46-3.06-1.99-4.9-.6-8.22,1.36-9.69,1.88-1.41,4.4-1.38,6.27.09,1.13.89,4.44,4.4,1.07,13.11,2.4,1.08,6.2-.99,9.27-3.22.14-2.35.02-4.13-.1-5.86-.16-2.3-.31-4.47.26-7.36.11-.59.58-1.05,1.17-1.16,3.4-.61,5.9-.05,7.41,1.68,1.65,1.88,1.88,4.91.67,8.77-.33,2.6,1.61,3.38,5.73,4.41,1.4.35,2.72.68,3.8,1.22.25.13.47.33.61.57,1.8,3.1,2.5,6.32,3.18,9.44.32,1.46.65,2.97,1.09,4.48.2.67-.11,1.39-.73,1.71-.35.18-.55.31-.75.49,2.04,8.96.19,19.94-1.6,30.57-1.55,9.21-3.16,18.73-2.13,26.57.07.52-.15,1.03-.56,1.35-.25.19-.46.37-.64.55.09.19.19.39.28.59.34.71.74,1.54,1.06,2.23l13.14.08c-.5-3.98-1.43-8.48-2.2-12.18-.32-1.54-.62-3-.85-4.23-.32-1.69-.22-3.04-.14-4.12.14-1.84.19-2.53-1.6-3.87-3.68-2.75-3.16-6.02-2.6-9.49.07-.42.14-.86.2-1.32.06-.45.13-.9.19-1.35.77-5.53,1.73-12.41,7.5-15.01.45-.2,1.02-.53,1.17-.94.24-.64-.36-1.89-.88-3-.82-1.73-1.84-3.89-.86-5.95.8-1.67,2.67-2.81,5.89-3.59,2.42-.59,4.13-.34,5.22.76,1.76,1.76,1.02,4.78.37,7.45-.21.88-.53,2.16-.51,2.7,2.22,1.87,9.2,9.5,8.89,15.13-.1,1.81-.95,3.26-2.47,4.19-.2.12-1.19.96-1.32,5.61-.09,3.08.23,6.53.45,9.06.1,1.07.17,1.91.2,2.5.03.7-.36,1.31-1.06,2.41-.72,1.14-1.82,2.86-1.93,4.08l-.99,11.16,8-.07c4.67-9.61,2.53-34.47,1.38-47.99-.12-1.35-.22-2.58-.31-3.7-3.08.36-4.7-.93-5.53-2.19-3.04-4.61.85-14.66,3.37-17.86,2.19-2.77,3.96-4.08,5.25-5.04,1.88-1.4,2.17-1.61,1.14-6.25-.58-2.58.3-5.05,2.36-6.59,2.02-1.52,4.76-1.8,6.81-.68,1.31.72,3.46,2.61,3.12,7.26-.33,4.51.62,5.08,2.93,6.45,1.87,1.12,4.43,2.64,6.96,6.65,1.54,2.43,4.84,10.16,1.89,13.51-1.14,1.3-2.87,1.63-5.17,1.01,1.62,16.18.69,35.08-2.6,52.36.15.31.32.6.49.91.35.62.72,1.29,1.01,2.15h114.47v2.92h-115.6c-.71,0-1.31-.51-1.44-1.2-.18-1-.54-1.64-.99-2.44-.27-.48-.55-.98-.81-1.58-.11-.27-.14-.56-.09-.85,3.47-17.96,4.34-37.75,2.4-54.29-.06-.53.17-1.04.6-1.35.43-.31.99-.36,1.47-.14,2.03.95,3.55,1.17,4.06.58,1.22-1.39-.21-6.91-2.17-10.02-2.16-3.42-4.19-4.63-5.98-5.7-2.99-1.78-4.77-3.29-4.34-9.17.16-2.24-.41-3.83-1.61-4.48-1.04-.57-2.55-.39-3.65.45-.66.5-1.71,1.63-1.26,3.62,1.34,5.98.54,7.16-2.25,9.23-1.16.86-2.75,2.04-4.69,4.51-2.23,2.82-5.18,11.46-3.22,14.44.24.36.97,1.47,4.04.64.42-.11.87-.03,1.22.22.36.25.58.65.61,1.08.11,1.5.26,3.27.44,5.3,1.3,15.19,3.48,40.62-2.14,50.42-.26.45-.74.73-1.25.74l-10.48.1h-.01Z" style="fill: #1b657c; stroke-width: 0px;"/>
  </g>
</svg>