<?xml version="1.0" encoding="UTF-8"?>
<svg id="a" data-name="Layer 1" xmlns="http://www.w3.org/2000/svg" viewBox="0 0 283.46 134.4">
  <g id="b" data-name="wg">
    <g>
      <path d="m23.05,117.63h-5.46c-.1-.71-.3-1.34-.61-1.89-.31-.55-.7-1.02-1.19-1.41-.48-.39-1.04-.69-1.66-.9-.63-.21-1.31-.31-2.04-.31-1.32,0-2.47.33-3.45.98-.98.65-1.74,1.6-2.28,2.84-.54,1.24-.81,2.75-.81,4.52s.27,3.35.82,4.59c.54,1.24,1.31,2.17,2.29,2.8.98.63,2.11.95,3.4.95.72,0,1.39-.1,2.01-.29.62-.19,1.17-.47,1.65-.84.48-.37.88-.82,1.2-1.35.32-.53.54-1.14.67-1.82l5.46.03c-.14,1.17-.49,2.3-1.05,3.38-.56,1.08-1.31,2.05-2.26,2.9s-2.07,1.53-3.37,2.02c-1.3.49-2.77.74-4.41.74-2.28,0-4.31-.51-6.1-1.55-1.79-1.03-3.2-2.52-4.24-4.48-1.03-1.95-1.55-4.32-1.55-7.09s.52-5.15,1.57-7.11c1.05-1.95,2.47-3.44,4.26-4.47s3.81-1.54,6.06-1.54c1.48,0,2.85.21,4.12.62,1.27.42,2.39,1.02,3.37,1.81s1.78,1.76,2.4,2.91c.62,1.15,1.02,2.46,1.19,3.94Z" style="fill: #1b657c; stroke-width: 0px;"/>
      <path d="m49.8,117.63h-5.46c-.1-.71-.3-1.34-.61-1.89-.31-.55-.7-1.02-1.18-1.41-.48-.39-1.04-.69-1.66-.9-.63-.21-1.31-.31-2.04-.31-1.32,0-2.47.33-3.45.98-.98.65-1.74,1.6-2.28,2.84s-.81,2.75-.81,4.52.27,3.35.82,4.59c.54,1.24,1.31,2.17,2.29,2.8.98.63,2.11.95,3.4.95.72,0,1.39-.1,2.01-.29.62-.19,1.17-.47,1.65-.84.48-.37.88-.82,1.2-1.35.32-.53.54-1.14.67-1.82l5.46.03c-.14,1.17-.49,2.3-1.05,3.38-.56,1.08-1.31,2.05-2.26,2.9s-2.06,1.53-3.37,2.02-2.77.74-4.41.74c-2.28,0-4.31-.51-6.1-1.55s-3.2-2.52-4.24-4.48c-1.03-1.95-1.55-4.32-1.55-7.09s.52-5.15,1.57-7.11c1.05-1.95,2.47-3.44,4.26-4.47,1.8-1.03,3.81-1.54,6.06-1.54,1.48,0,2.85.21,4.12.62s2.39,1.02,3.37,1.81c.98.79,1.78,1.76,2.4,2.91.62,1.15,1.02,2.46,1.19,3.94Z" style="fill: #1b657c; stroke-width: 0px;"/>
      <path d="m76.56,117.63h-5.46c-.1-.71-.3-1.34-.61-1.89-.31-.55-.7-1.02-1.18-1.41-.48-.39-1.04-.69-1.66-.9-.63-.21-1.31-.31-2.04-.31-1.32,0-2.47.33-3.45.98-.98.65-1.74,1.6-2.28,2.84-.54,1.24-.81,2.75-.81,4.52s.27,3.35.82,4.59c.54,1.24,1.31,2.17,2.29,2.8.98.63,2.11.95,3.4.95.72,0,1.39-.1,2.01-.29.62-.19,1.17-.47,1.65-.84.48-.37.88-.82,1.2-1.35.32-.53.54-1.14.67-1.82l5.46.03c-.14,1.17-.49,2.3-1.05,3.38-.56,1.08-1.31,2.05-2.26,2.9s-2.07,1.53-3.37,2.02c-1.3.49-2.77.74-4.41.74-2.28,0-4.31-.51-6.1-1.55-1.79-1.03-3.2-2.52-4.24-4.48-1.03-1.95-1.55-4.32-1.55-7.09s.52-5.15,1.57-7.11c1.05-1.95,2.47-3.44,4.26-4.47s3.81-1.54,6.06-1.54c1.48,0,2.85.21,4.12.62s2.39,1.02,3.37,1.81c.98.79,1.78,1.76,2.4,2.91.62,1.15,1.02,2.46,1.19,3.94Z" style="fill: #1b657c; stroke-width: 0px;"/>
      <path d="m80.78,108.69h6.66l7.03,17.15h.3l7.03-17.15h6.66v25.53h-5.24v-16.62h-.21l-6.61,16.49h-3.57l-6.61-16.55h-.21v16.68h-5.24v-25.53Z" style="fill: #1b657c; stroke-width: 0px;"/>
      <path d="m123.01,134.2l-3.95-13.82h3.19l2.29,9.6h.12l2.52-9.6h2.73l2.52,9.62h.12l2.29-9.62h3.19l-3.95,13.82h-2.85l-2.63-9.04h-.11l-2.63,9.04h-2.85Z" style="fill: #1b657c; stroke-width: 0px;"/>
      <path d="m151.51,127.29c0,1.51-.28,2.79-.85,3.85-.57,1.06-1.34,1.86-2.32,2.42-.98.56-2.08.83-3.3.83s-2.33-.28-3.31-.84c-.98-.56-1.75-1.37-2.31-2.42-.57-1.06-.85-2.34-.85-3.84s.28-2.79.85-3.85c.57-1.06,1.34-1.86,2.31-2.42.98-.56,2.08-.83,3.31-.83s2.32.28,3.3.83,1.75,1.36,2.32,2.42c.57,1.06.85,2.34.85,3.85Zm-2.96,0c0-.98-.14-1.8-.43-2.47-.29-.67-.7-1.18-1.22-1.53s-1.14-.52-1.85-.52-1.32.17-1.85.52c-.53.35-.93.85-1.22,1.53-.29.67-.44,1.49-.44,2.47s.14,1.8.44,2.47c.29.67.7,1.18,1.22,1.53.53.35,1.14.52,1.85.52s1.32-.17,1.85-.52c.53-.35.93-.86,1.22-1.53.29-.67.43-1.49.43-2.47Z" style="fill: #1b657c; stroke-width: 0px;"/>
      <path d="m153.67,134.2v-13.82h5.45c1.04,0,1.94.19,2.68.56.74.37,1.3.9,1.69,1.57.39.68.58,1.47.58,2.39s-.2,1.71-.59,2.37c-.4.66-.97,1.16-1.72,1.51-.75.35-1.65.53-2.72.53h-3.65v-2.35h3.18c.56,0,1.02-.08,1.39-.23.37-.15.64-.38.83-.69.18-.31.27-.69.27-1.14s-.09-.85-.27-1.16c-.18-.32-.46-.55-.83-.72-.37-.16-.84-.25-1.4-.25h-1.97v11.43h-2.92Zm7.46-6.29l3.44,6.29h-3.23l-3.36-6.29h3.15Z" style="fill: #1b657c; stroke-width: 0px;"/>
      <path d="m166.14,134.2v-13.82h2.92v6.09h.18l4.97-6.09h3.5l-5.13,6.19,5.19,7.63h-3.5l-3.79-5.68-1.44,1.75v3.93h-2.92Z" style="fill: #1b657c; stroke-width: 0px;"/>
      <path d="m182.17,120.38v13.82h-2.92v-13.82h2.92Z" style="fill: #1b657c; stroke-width: 0px;"/>
      <path d="m196.14,120.38v13.82h-2.52l-6.01-8.7h-.1v8.7h-2.92v-13.82h2.56l5.97,8.69h.12v-8.69h2.91Z" style="fill: #1b657c; stroke-width: 0px;"/>
      <path d="m207.71,124.85c-.09-.33-.23-.62-.4-.87-.17-.25-.38-.47-.62-.65s-.52-.31-.84-.41-.66-.14-1.04-.14c-.71,0-1.33.18-1.86.53-.53.35-.95.86-1.25,1.53s-.45,1.48-.45,2.45.15,1.78.44,2.46c.29.67.71,1.19,1.24,1.54.54.35,1.17.53,1.9.53.66,0,1.23-.12,1.7-.35.47-.24.83-.57,1.08-1s.38-.94.38-1.53l.59.09h-3.56v-2.2h5.78v1.74c0,1.22-.26,2.26-.77,3.13-.51.87-1.22,1.54-2.12,2.01-.9.47-1.93.71-3.09.71-1.3,0-2.43-.29-3.41-.86-.98-.57-1.74-1.39-2.29-2.45-.55-1.06-.82-2.32-.82-3.78,0-1.12.16-2.12.49-3s.78-1.63,1.37-2.24c.59-.61,1.28-1.08,2.06-1.4s1.63-.48,2.54-.48c.78,0,1.51.11,2.19.34.67.23,1.27.55,1.8.96.52.41.95.91,1.29,1.47.33.57.55,1.2.64,1.88h-2.97Z" style="fill: #1b657c; stroke-width: 0px;"/>
      <path d="m226.57,124.85c-.09-.33-.23-.62-.4-.87-.17-.25-.38-.47-.62-.65s-.52-.31-.84-.41-.66-.14-1.04-.14c-.71,0-1.33.18-1.86.53-.53.35-.95.86-1.25,1.53s-.45,1.48-.45,2.45.15,1.78.44,2.46c.29.67.71,1.19,1.24,1.54.54.35,1.17.53,1.9.53.66,0,1.23-.12,1.7-.35.47-.24.83-.57,1.08-1s.38-.94.38-1.53l.59.09h-3.56v-2.2h5.78v1.74c0,1.22-.26,2.26-.77,3.13-.51.87-1.22,1.54-2.12,2.01-.9.47-1.93.71-3.09.71-1.3,0-2.43-.29-3.41-.86-.98-.57-1.74-1.39-2.29-2.45-.55-1.06-.82-2.32-.82-3.78,0-1.12.16-2.12.49-3s.78-1.63,1.37-2.24,1.28-1.08,2.06-1.4c.78-.32,1.63-.48,2.54-.48.78,0,1.51.11,2.19.34.67.23,1.27.55,1.8.96.52.41.95.91,1.29,1.47.33.57.55,1.2.64,1.88h-2.97Z" style="fill: #1b657c; stroke-width: 0px;"/>
      <path d="m231.86,134.2v-13.82h5.45c1.04,0,1.94.19,2.68.56.74.37,1.3.9,1.69,1.57.39.68.58,1.47.58,2.39s-.2,1.71-.59,2.37c-.4.66-.97,1.16-1.72,1.51-.75.35-1.65.53-2.72.53h-3.65v-2.35h3.18c.56,0,1.02-.08,1.39-.23.37-.15.64-.38.83-.69.18-.31.27-.69.27-1.14s-.09-.85-.27-1.16c-.18-.32-.46-.55-.83-.72-.37-.16-.84-.25-1.4-.25h-1.97v11.43h-2.92Zm7.46-6.29l3.44,6.29h-3.23l-3.36-6.29h3.15Z" style="fill: #1b657c; stroke-width: 0px;"/>
      <path d="m257.04,127.29c0,1.51-.29,2.79-.85,3.85-.57,1.06-1.34,1.86-2.32,2.42-.98.56-2.08.83-3.3.83s-2.33-.28-3.31-.84c-.98-.56-1.75-1.37-2.31-2.42-.57-1.06-.85-2.34-.85-3.84s.28-2.79.85-3.85c.57-1.06,1.34-1.86,2.31-2.42.98-.56,2.08-.83,3.31-.83s2.32.28,3.3.83,1.75,1.36,2.32,2.42c.57,1.06.85,2.34.85,3.85Zm-2.96,0c0-.98-.15-1.8-.44-2.47-.29-.67-.7-1.18-1.22-1.53s-1.14-.52-1.85-.52-1.32.17-1.85.52-.93.85-1.22,1.53c-.29.67-.44,1.49-.44,2.47s.15,1.8.44,2.47c.29.67.7,1.18,1.22,1.53.53.35,1.14.52,1.85.52s1.32-.17,1.85-.52c.53-.35.93-.86,1.22-1.53.29-.67.44-1.49.44-2.47Z" style="fill: #1b657c; stroke-width: 0px;"/>
      <path d="m267.73,120.38h2.92v8.98c0,1.01-.24,1.89-.72,2.65-.48.76-1.15,1.34-2.01,1.77-.86.42-1.86.63-3,.63s-2.15-.21-3.01-.63c-.86-.42-1.53-1.01-2-1.77-.48-.76-.71-1.64-.71-2.65v-8.98h2.92v8.73c0,.53.12.99.35,1.4.23.41.56.73.98.97.42.23.92.35,1.48.35s1.06-.12,1.48-.35c.42-.23.75-.56.98-.97.23-.41.35-.88.35-1.4v-8.73Z" style="fill: #1b657c; stroke-width: 0px;"/>
      <path d="m273.06,134.2v-13.82h5.45c1.05,0,1.94.2,2.68.6.74.4,1.3.95,1.69,1.65s.58,1.51.58,2.43-.2,1.73-.59,2.43c-.4.7-.97,1.25-1.72,1.64-.75.39-1.65.59-2.72.59h-3.48v-2.34h3c.56,0,1.03-.1,1.39-.29.37-.2.64-.47.82-.82.18-.35.27-.75.27-1.2s-.09-.86-.27-1.2c-.18-.34-.46-.61-.83-.8-.37-.19-.84-.29-1.4-.29h-1.97v11.43h-2.92Z" style="fill: #1b657c; stroke-width: 0px;"/>
    </g>
    <path d="m136.12,98.01c-.41,0-.8-.17-1.08-.47-.28-.3-.42-.71-.38-1.12l1.14-12.78c.17-1.94,1.45-3.94,2.38-5.4.21-.33.47-.74.59-.97-.03-.52-.1-1.27-.18-2.12-.7-7.7-1.1-15.39,2.25-17.44.7-.43,1.03-1,1.08-1.86.21-3.9-5.52-10.93-7.99-12.86-1.41-1.09-.91-3.15-.33-5.53.35-1.43,1-4.1.4-4.7-.21-.22-.99-.34-2.47.02-2.93.71-3.73,1.57-3.95,2.01-.38.8.25,2.15.87,3.44.77,1.63,1.64,3.47.98,5.26-.4,1.09-1.32,1.97-2.71,2.6-4.31,1.94-5.07,7.45-5.82,12.77-.06.46-.13.92-.19,1.37-.07.47-.14.92-.21,1.36-.57,3.55-.71,5.06,1.47,6.7,3.08,2.3,2.92,4.4,2.77,6.43-.07,1.01-.15,2.05.1,3.37.23,1.21.53,2.65.84,4.18.89,4.29,1.99,9.63,2.43,14.13.04.41-.1.82-.38,1.13-.28.31-.68.49-1.09.48l-15.76-.1c-.6,0-1.13-.37-1.35-.92-.25-.62-.9-1.97-1.37-2.96-.37-.76-.58-1.21-.68-1.44-.17-.4-.15-.85.05-1.23.32-.62.74-1.1,1.19-1.51-.89-8.1.7-17.53,2.24-26.66,1.8-10.65,3.65-21.67,1.46-30.18-.12-.47,0-.96.32-1.33.39-.44.69-.76,1.08-1.06-.33-1.23-.59-2.43-.85-3.61-.63-2.89-1.23-5.62-2.63-8.22-.76-.31-1.77-.56-2.82-.83-3.48-.87-8.73-2.19-7.91-7.79.01-.08.03-.16.05-.23.9-2.81.88-5.03-.05-6.08-.79-.9-2.3-1.01-3.7-.88-.28,2.04-.17,3.7-.04,5.6.13,1.9.28,4.06.05,6.96-.03.42-.25.8-.58,1.06-6.42,4.81-11.26,5.78-14.37,2.88-.45-.42-.59-1.08-.35-1.65,2.61-6.05,1.84-9.54.26-10.78-.83-.65-1.89-.67-2.72-.06-1.09.82-1.77,2.9-.41,6.27.88,2.18,1.03,3.92.44,5.31-.78,1.83-2.54,2.54-4.1,3.17-1.55.63-2.52,1.06-2.79,2.02-.81,2.8-.37,4.11.29,6.09.31.92.65,1.96.92,3.27,2.51,12.37,2.5,33.87-1.41,45.84,2.84,2.64,8.94,10.39,7.98,17.71-.1.73-.72,1.27-1.45,1.27-8.17,0-13.15-1.35-16.15-4.37-3.94-3.96-3.9-10.16-3.85-18.73.01-1.84.02-3.75,0-5.78,0-.67.44-1.25,1.07-1.43.22-14.21.18-15.28,0-19.52v-.28s-.01-.09,0-.14c.13-2.21,1.41-4.21,2.64-6.14,1.36-2.13,2.65-4.14,2.15-5.99-.63-2.3-1.05-4.38-1.46-6.4-.64-3.15-1.24-6.12-2.53-9.42-.17-.44-.36-.95-.56-1.5-.98-2.68-2.8-7.66-4.78-7.96-.8-.12-1.9.67-3.09,2.24-1.42,1.86-.92,3.76.07,6.67,1.03,3.04,2.45,7.2-2.54,10.11-.69.4-1.57.18-1.99-.5-.91-1.49-2.16-2.19-3.93-2.2-.48,0-.92-.23-1.19-.62-.27-.39-.34-.89-.18-1.33,1.02-2.83-.12-4.34-.65-4.86-.64-.62-1.48-.89-2.05-.66-.56.23-.7.96-.72,1.53-.02.49.67,1.55,1.08,2.18.66,1.02,1.23,1.89,1.07,2.85-.35,2.17-1.11,3.3-1.72,4.21-.7,1.05-1.13,1.68-.74,4.16.32,2.09,1.28,3.92,2.3,5.87,1.39,2.65,2.82,5.39,2.64,8.88l-1.01,19.58c1.18.11,2.63.08,3.26-.08.44-.11.9,0,1.25.27.35.28.56.7.56,1.15,0,1.36.05,2.88.11,4.49.32,9.22.72,20.69-7.56,23.64-.16.06-.32.09-.49.09h-11.82c-.74,0-1.37-.56-1.45-1.3-.29-2.61-.84-4.09-1.37-5.52-.95-2.58-1.78-4.8-.73-11.47.09-.59.53-1.07,1.12-1.2.29-.07.57-.09.85-.09-.28-4.55,0-9.25.27-13.82.46-7.65.93-15.56-1.28-22.6-.21-.68.1-1.42.74-1.74,2.32-1.17,3.97-5.54,3.68-9.75-.13-1.78-.82-6.07-4.55-7.33-.33-.11-.6-.33-.78-.62-.53-.11-1-.33-1.41-.66-1.65-1.33-1.69-3.85-1.72-6.53-.05-3.54-.23-5.89-2.19-6.32-1.31-.28-2.29-.19-2.92.27-1.31.96-1.57,3.77-1.79,6.25-.27,3.03-.61,6.72-3.4,7.5-.31.89-.85,2.03-1.6,3.62-1.73,3.64-4.63,9.72-3.14,12.1.49.78,1.58,1.19,3.26,1.21.43,0,.83.2,1.11.53.27.33.39.76.31,1.19-1.71,9.73-4.85,27.64-2.36,36.76,1.18.4,2.91.4,4.46.4.24,0,.47,0,.7,0,.6,0,1.14.38,1.36.94,1.38,3.63,2.15,7.41,2.3,11.25.01.37-.11.72-.34.99.1,1.62-.06,3.24-.46,4.83-.16.65-.75,1.1-1.42,1.1H0v-2.93h12.88c.2-1.19.22-2.4.08-3.59-.03-.24,0-.49.09-.71.06-.14.14-.3.26-.45-.19-2.9-.77-5.76-1.72-8.52-2.14,0-4.32-.06-6.03-.97-.34-.18-.59-.48-.7-.85-2.89-9.12-.02-26.73,1.81-37.21-1.85-.31-3.2-1.13-4.01-2.44-2.33-3.74.74-10.19,2.99-14.9.73-1.53,1.56-3.27,1.62-3.83.08-.74.71-1.3,1.45-1.3,1.03,0,1.34-1.54,1.66-5,.28-3.09.6-6.6,2.97-8.34,1.33-.98,3.1-1.24,5.27-.77,4.38.96,4.45,5.69,4.5,9.14.02,1.61.05,3.82.63,4.28.16.13.53.14,1.03.04.44-.09.9.03,1.25.32.32.28.51.68.51,1.1,2.92,1.64,4.73,4.92,5.03,9.23.3,4.3-1.06,9.5-4.22,11.91,2,7.25,1.54,15.04,1.09,22.57-.3,4.94-.6,10.04-.17,14.81.05.58-.25,1.14-.76,1.42-.49.27-1.03.32-1.5.34-.66,5-.03,6.7.76,8.83.48,1.28,1,2.71,1.36,4.91h10.27c6.03-2.4,5.68-12.54,5.39-20.7-.04-1.03-.07-2.01-.09-2.96-1.35.06-2.98-.04-4.08-.34-.66-.18-1.11-.8-1.08-1.49l1.07-20.88c.14-2.69-1.05-4.96-2.31-7.37-1.08-2.07-2.2-4.21-2.6-6.78-.52-3.34.17-4.69,1.2-6.23.5-.74.97-1.44,1.23-2.85-.11-.24-.4-.68-.6-.99-.71-1.1-1.6-2.46-1.55-3.88.07-2,1-3.51,2.55-4.14,1.65-.67,3.69-.17,5.18,1.26,1.59,1.53,2.24,3.77,1.84,6.2,1.43.33,2.67,1.06,3.66,2.15,1.6-1.43,1.15-3.07.19-5.9-.93-2.74-2.09-6.15.38-9.39,1.93-2.53,3.9-3.65,5.86-3.36,3.69.56,5.65,5.93,7.09,9.85.19.53.37,1.02.54,1.44,1.38,3.54,2.01,6.63,2.67,9.9.4,1.97.81,4.01,1.41,6.22.84,3.1-.94,5.88-2.51,8.33-1.07,1.67-2.07,3.24-2.18,4.66v.21c.18,4.4.23,5.44-.02,20.65-.01.64-.44,1.2-1.04,1.38.01,1.69,0,3.29,0,4.84-.05,7.87-.08,13.55,3,16.65,2.22,2.24,6.28,3.35,12.7,3.49-.05-6.41-6.27-13.36-7.53-14.28-.28-.15-.51-.38-.65-.67-.17-.35-.19-.76-.05-1.12,4.07-11.29,4.12-32.89,1.62-45.22-.23-1.13-.53-2.04-.82-2.92-.71-2.14-1.39-4.15-.33-7.83.68-2.38,2.8-3.23,4.51-3.92,1.18-.48,2.2-.89,2.5-1.6.26-.62.1-1.68-.46-3.07-1.99-4.91-.6-8.23,1.36-9.7,1.88-1.42,4.41-1.38,6.28.09,1.14.89,4.45,4.41,1.07,13.13,2.4,1.09,6.21-.99,9.29-3.23.14-2.35.02-4.14-.1-5.87-.16-2.3-.31-4.48.26-7.37.11-.59.58-1.05,1.17-1.16,3.41-.61,5.91-.05,7.42,1.69,1.65,1.88,1.88,4.92.67,8.78-.33,2.6,1.61,3.38,5.74,4.42,1.4.35,2.73.68,3.81,1.23.25.13.47.33.61.57,1.8,3.1,2.5,6.33,3.19,9.46.32,1.47.65,2.98,1.09,4.48.2.67-.11,1.39-.73,1.71-.36.18-.55.31-.75.49,2.04,8.97.19,19.97-1.6,30.61-1.55,9.22-3.16,18.76-2.13,26.6.07.52-.15,1.03-.56,1.35-.25.19-.46.37-.64.55.09.19.19.39.28.59.34.71.74,1.54,1.06,2.23l13.16.08c-.5-3.98-1.43-8.49-2.2-12.2-.32-1.55-.62-3-.85-4.23-.32-1.7-.22-3.04-.14-4.13.14-1.84.19-2.53-1.61-3.88-3.68-2.76-3.16-6.03-2.61-9.5.07-.42.14-.86.21-1.32.06-.45.13-.9.19-1.36.77-5.54,1.73-12.42,7.51-15.03.45-.2,1.02-.53,1.17-.94.24-.64-.36-1.89-.88-3-.82-1.74-1.84-3.9-.86-5.96.8-1.67,2.67-2.82,5.9-3.6,2.42-.59,4.13-.34,5.23.76,1.76,1.76,1.02,4.79.37,7.46-.21.88-.53,2.16-.51,2.7,2.23,1.87,9.21,9.51,8.9,15.15-.1,1.81-.95,3.27-2.47,4.2-.2.12-1.19.96-1.32,5.62-.09,3.09.23,6.54.46,9.07.1,1.07.17,1.92.2,2.51.03.7-.36,1.31-1.06,2.41-.73,1.14-1.82,2.86-1.93,4.09l-.99,11.17,8.01-.07c4.68-9.62,2.54-34.52,1.38-48.06-.12-1.35-.22-2.59-.31-3.7-3.09.36-4.7-.94-5.53-2.2-3.04-4.62.85-14.69,3.37-17.88,2.19-2.78,3.96-4.09,5.26-5.05,1.89-1.4,2.17-1.61,1.14-6.26-.58-2.59.31-5.05,2.36-6.6,2.02-1.53,4.76-1.8,6.82-.68,1.31.72,3.47,2.61,3.13,7.27-.33,4.52.63,5.09,2.93,6.46,1.87,1.12,4.43,2.65,6.97,6.66,1.54,2.44,4.85,10.17,1.89,13.53-1.14,1.3-2.88,1.64-5.17,1.01,1.62,16.2.69,35.13-2.6,52.43.15.31.32.6.49.91.35.62.72,1.29,1.01,2.15h114.62v2.93h-115.76c-.71,0-1.31-.51-1.44-1.2-.18-1-.54-1.64-.99-2.45-.27-.48-.55-.98-.81-1.59-.11-.27-.14-.56-.09-.85,3.47-17.99,4.35-37.8,2.4-54.37-.06-.53.17-1.05.6-1.36.43-.31.99-.36,1.47-.14,2.03.95,3.56,1.17,4.07.58,1.22-1.39-.21-6.92-2.17-10.03-2.16-3.42-4.2-4.64-5.99-5.71-2.99-1.79-4.78-3.3-4.35-9.19.16-2.24-.41-3.83-1.61-4.49-1.05-.57-2.55-.39-3.66.45-.66.5-1.71,1.64-1.27,3.63,1.34,5.99.55,7.17-2.25,9.24-1.16.86-2.75,2.04-4.7,4.51-2.23,2.82-5.19,11.48-3.22,14.46.24.37.97,1.47,4.04.65.42-.11.87-.03,1.22.22.36.25.58.65.61,1.08.11,1.5.26,3.27.44,5.31,1.3,15.21,3.49,40.67-2.14,50.49-.26.45-.74.73-1.26.74l-10.5.1h-.01Z" style="fill: #1b657c; stroke-width: 0px;"/>
  </g>
</svg>