<?xml version="1.0" encoding="UTF-8"?>
<svg id="a" data-name="Layer 1" xmlns="http://www.w3.org/2000/svg" viewBox="0 0 283.46 134.4">
  <g id="b" data-name="sector">
    <g>
      <path d="m254.32,120.82c3.09,0,4.6-1.27,4.6-3.8s-1.51-3.93-4.63-3.93h-3.64v7.73h3.67Zm-9.07-12.15h10.08c5.8,0,9.16,3.27,9.16,8.34,0,3.49-1.61,6.02-4.52,7.27l5.43,9.93h-5.96l-4.84-9.05h-3.94v9.05h-5.4v-25.54Z" style="fill: #1b657c; stroke-width: 0px;"/>
      <path d="m229.32,113.1c-3.93,0-6.49,2.93-6.49,8.34s2.56,8.34,6.49,8.34,6.49-2.93,6.49-8.34-2.57-8.34-6.49-8.34m0,21.46c-6.81,0-11.96-4.8-11.96-13.12s5.15-13.12,11.96-13.12,11.96,4.76,11.96,13.12-5.19,13.12-11.96,13.12" style="fill: #1b657c; stroke-width: 0px;"/>
      <polygon points="193.38 108.68 214.35 108.68 214.35 113.13 206.53 113.13 206.53 134.22 201.2 134.22 201.2 113.13 193.38 113.13 193.38 108.68" style="fill: #1b657c; stroke-width: 0px;"/>
      <path d="m185.02,117.62c-.41-2.81-2.54-4.52-5.5-4.52-3.96,0-6.55,3.03-6.55,8.34s2.63,8.34,6.51,8.34c2.88,0,5.03-1.57,5.54-4.3l5.46.03c-.59,4.7-4.54,9.05-11.09,9.05s-11.9-4.79-11.9-13.12,5.15-13.12,11.9-13.12c5.91,0,10.38,3.39,11.09,9.29h-5.46Z" style="fill: #1b657c; stroke-width: 0px;"/>
      <polygon points="146.44 108.68 163.65 108.68 163.65 113.13 151.84 113.13 151.84 119.21 162.77 119.21 162.77 123.67 151.84 123.67 151.84 129.77 163.7 129.77 163.7 134.22 146.44 134.22 146.44 108.68" style="fill: #1b657c; stroke-width: 0px;"/>
      <path d="m132.95,112.84c-2.64,0-4.1,1.21-4.1,2.86-.04,1.83,1.82,2.66,4.04,3.17l2.29.55c4.44,1,7.65,3.26,7.66,7.51-.01,4.68-3.68,7.66-9.92,7.66s-10.15-2.86-10.29-8.38h5.23c.17,2.56,2.19,3.85,5,3.85s4.52-1.27,4.53-3.14c-.01-1.72-1.56-2.52-4.34-3.19l-2.78-.7c-4.31-1.04-6.97-3.19-6.96-6.96-.02-4.64,4.08-7.73,9.68-7.73s9.43,3.14,9.5,7.7h-5.18c-.2-2.01-1.78-3.18-4.36-3.18" style="fill: #1b657c; stroke-width: 0px;"/>
      <polygon points="80.78 108.69 87.44 108.69 94.47 125.84 94.77 125.84 101.8 108.69 108.46 108.69 108.46 134.22 103.22 134.22 103.22 117.6 103.01 117.6 96.4 134.1 92.84 134.1 86.23 117.54 86.02 117.54 86.02 134.22 80.78 134.22 80.78 108.69" style="fill: #1b657c; stroke-width: 0px;"/>
      <path d="m23.05,117.63h-5.46c-.1-.71-.3-1.34-.61-1.89-.31-.55-.7-1.02-1.18-1.41-.48-.39-1.04-.69-1.66-.9-.63-.21-1.31-.31-2.04-.31-1.32,0-2.47.32-3.45.98-.98.65-1.74,1.6-2.28,2.84-.54,1.24-.81,2.75-.81,4.52s.27,3.35.82,4.59c.54,1.24,1.31,2.17,2.29,2.8.98.63,2.11.95,3.4.95.72,0,1.39-.09,2.01-.29.62-.19,1.17-.47,1.65-.84.48-.37.88-.82,1.2-1.35.32-.53.54-1.14.67-1.82l5.46.03c-.14,1.17-.49,2.3-1.05,3.38-.56,1.08-1.31,2.05-2.26,2.9-.94.85-2.07,1.53-3.37,2.02-1.3.49-2.77.74-4.41.74-2.28,0-4.31-.51-6.1-1.54-1.79-1.03-3.2-2.52-4.24-4.48-1.04-1.95-1.55-4.32-1.55-7.09s.52-5.15,1.57-7.11c1.05-1.95,2.47-3.44,4.26-4.47,1.8-1.03,3.82-1.54,6.06-1.54,1.48,0,2.85.21,4.12.62,1.27.42,2.39,1.02,3.37,1.81.98.79,1.78,1.76,2.4,2.91.62,1.15,1.02,2.46,1.19,3.94" style="fill: #1b657c; stroke-width: 0px;"/>
      <path d="m49.8,117.63h-5.46c-.1-.71-.3-1.34-.61-1.89-.31-.55-.7-1.02-1.18-1.41-.48-.39-1.04-.69-1.67-.9-.63-.21-1.31-.31-2.04-.31-1.32,0-2.47.32-3.45.98-.98.65-1.74,1.6-2.28,2.84-.54,1.24-.81,2.75-.81,4.52s.27,3.35.82,4.59c.55,1.24,1.31,2.17,2.29,2.8.98.63,2.11.95,3.4.95.72,0,1.39-.09,2.01-.29.62-.19,1.17-.47,1.65-.84.48-.37.88-.82,1.2-1.35.32-.53.54-1.14.67-1.82l5.46.03c-.14,1.17-.49,2.3-1.05,3.38-.56,1.08-1.31,2.05-2.26,2.9-.94.85-2.06,1.53-3.37,2.02-1.3.49-2.77.74-4.41.74-2.28,0-4.31-.51-6.1-1.54-1.79-1.03-3.2-2.52-4.24-4.48-1.04-1.95-1.55-4.32-1.55-7.09s.52-5.15,1.57-7.11c1.05-1.95,2.47-3.44,4.26-4.47,1.8-1.03,3.82-1.54,6.06-1.54,1.48,0,2.85.21,4.12.62,1.27.42,2.39,1.02,3.37,1.81.98.79,1.78,1.76,2.4,2.91.62,1.15,1.02,2.46,1.19,3.94" style="fill: #1b657c; stroke-width: 0px;"/>
      <path d="m76.56,117.63h-5.46c-.1-.71-.3-1.34-.61-1.89-.31-.55-.7-1.02-1.18-1.41-.48-.39-1.04-.69-1.67-.9-.63-.21-1.31-.31-2.04-.31-1.32,0-2.47.32-3.45.98-.98.65-1.74,1.6-2.28,2.84-.54,1.24-.81,2.75-.81,4.52s.27,3.35.82,4.59c.55,1.24,1.31,2.17,2.29,2.8.98.63,2.11.95,3.4.95.72,0,1.39-.09,2.01-.29.62-.19,1.17-.47,1.65-.84.48-.37.88-.82,1.2-1.35.32-.53.54-1.14.67-1.82l5.46.03c-.14,1.17-.49,2.3-1.05,3.38-.56,1.08-1.31,2.05-2.26,2.9-.94.85-2.07,1.53-3.37,2.02-1.3.49-2.77.74-4.41.74-2.28,0-4.31-.51-6.1-1.54-1.79-1.03-3.2-2.52-4.24-4.48-1.04-1.95-1.55-4.32-1.55-7.09s.52-5.15,1.57-7.11c1.05-1.95,2.47-3.44,4.26-4.47,1.8-1.03,3.82-1.54,6.06-1.54,1.48,0,2.85.21,4.12.62,1.27.42,2.39,1.02,3.37,1.81.98.79,1.78,1.76,2.4,2.91.62,1.15,1.02,2.46,1.19,3.94" style="fill: #1b657c; stroke-width: 0px;"/>
    </g>
    <path d="m136.12,98.01c-.41,0-.8-.17-1.08-.47-.28-.3-.42-.71-.38-1.12l1.13-12.78c.17-1.94,1.45-3.94,2.38-5.4.21-.33.47-.74.59-.97-.03-.52-.1-1.27-.17-2.12-.7-7.7-1.1-15.39,2.25-17.44.7-.43,1.03-1,1.08-1.87.21-3.9-5.52-10.93-7.99-12.86-1.41-1.09-.91-3.15-.33-5.53.35-1.43,1-4.1.4-4.7-.21-.22-.99-.34-2.47.02-2.93.71-3.73,1.57-3.95,2.01-.38.8.25,2.15.87,3.44.77,1.63,1.64,3.47.98,5.26-.4,1.09-1.31,1.97-2.71,2.6-4.31,1.94-5.07,7.45-5.82,12.77-.06.46-.13.92-.19,1.37-.07.47-.14.92-.21,1.36-.57,3.55-.71,5.06,1.47,6.7,3.08,2.3,2.92,4.4,2.77,6.43-.07,1.01-.15,2.05.1,3.37.23,1.21.53,2.65.84,4.18.89,4.29,1.99,9.63,2.43,14.13.04.41-.1.82-.38,1.13-.28.3-.68.49-1.09.48l-15.76-.1c-.59,0-1.13-.37-1.35-.92-.25-.62-.9-1.97-1.37-2.96-.37-.76-.58-1.21-.68-1.44-.17-.4-.15-.85.05-1.23.32-.62.73-1.1,1.18-1.51-.89-8.1.71-17.53,2.24-26.66,1.8-10.65,3.65-21.67,1.47-30.18-.12-.47,0-.96.32-1.33.39-.44.69-.76,1.08-1.06-.33-1.23-.59-2.43-.85-3.61-.63-2.89-1.23-5.62-2.63-8.21-.76-.31-1.77-.56-2.82-.83-3.48-.87-8.73-2.19-7.91-7.79.01-.08.03-.16.06-.23.9-2.81.88-5.03-.05-6.08-.79-.9-2.3-1.02-3.7-.88-.28,2.04-.17,3.71-.04,5.6.13,1.9.28,4.06.05,6.96-.03.42-.25.8-.58,1.05-6.42,4.81-11.26,5.78-14.37,2.88-.45-.42-.59-1.08-.35-1.65,2.61-6.05,1.84-9.54.26-10.78-.83-.65-1.89-.67-2.72-.06-1.09.82-1.77,2.9-.41,6.27.89,2.18,1.03,3.92.44,5.3-.77,1.83-2.54,2.54-4.1,3.17-1.55.63-2.52,1.06-2.79,2.02-.81,2.8-.37,4.11.29,6.09.31.92.65,1.96.92,3.27,2.51,12.37,2.5,33.87-1.41,45.84,2.84,2.64,8.94,10.39,7.98,17.71-.1.73-.72,1.27-1.45,1.27-8.17,0-13.15-1.35-16.15-4.37-3.94-3.96-3.9-10.16-3.85-18.73.01-1.84.02-3.74,0-5.78,0-.67.44-1.25,1.06-1.43.22-14.2.18-15.28,0-19.52v-.28s-.01-.09,0-.14c.13-2.21,1.41-4.21,2.64-6.14,1.36-2.13,2.65-4.14,2.15-5.99-.63-2.3-1.05-4.38-1.46-6.4-.64-3.15-1.24-6.12-2.53-9.42-.17-.44-.36-.95-.56-1.5-.98-2.68-2.8-7.66-4.78-7.96-.8-.12-1.9.67-3.09,2.24-1.42,1.86-.92,3.76.07,6.67,1.03,3.04,2.45,7.2-2.54,10.11-.69.4-1.57.18-1.99-.5-.91-1.49-2.16-2.19-3.93-2.2-.48,0-.92-.24-1.19-.62-.27-.39-.34-.89-.18-1.33,1.02-2.83-.12-4.34-.65-4.86-.64-.62-1.48-.89-2.05-.66-.56.23-.7.96-.72,1.53-.02.49.67,1.55,1.08,2.18.66,1.02,1.23,1.89,1.07,2.85-.36,2.17-1.11,3.3-1.72,4.21-.7,1.05-1.13,1.68-.74,4.16.32,2.08,1.28,3.92,2.3,5.87,1.39,2.65,2.82,5.39,2.64,8.88l-1.01,19.58c1.18.12,2.63.08,3.26-.08.44-.11.9,0,1.25.27.35.28.56.7.56,1.15,0,1.36.05,2.88.11,4.49.32,9.22.72,20.69-7.56,23.64-.16.06-.32.09-.49.09h-11.82c-.74,0-1.37-.56-1.45-1.3-.29-2.61-.84-4.09-1.37-5.52-.95-2.58-1.78-4.8-.73-11.47.09-.59.53-1.06,1.12-1.2.29-.07.57-.09.85-.09-.28-4.55,0-9.25.27-13.82.46-7.65.93-15.56-1.28-22.6-.21-.68.1-1.42.74-1.74,2.32-1.17,3.97-5.55,3.68-9.75-.13-1.78-.82-6.07-4.55-7.33-.33-.11-.6-.33-.78-.62-.53-.11-1-.33-1.41-.66-1.65-1.33-1.69-3.85-1.72-6.53-.05-3.54-.23-5.89-2.19-6.32-1.31-.28-2.29-.19-2.92.27-1.31.96-1.57,3.77-1.79,6.25-.28,3.03-.61,6.71-3.4,7.5-.31.89-.84,2.03-1.6,3.62-1.73,3.64-4.63,9.72-3.14,12.1.48.78,1.58,1.19,3.26,1.21.43,0,.83.2,1.11.53.27.33.39.76.31,1.19-1.71,9.73-4.85,27.64-2.36,36.76,1.18.4,2.91.4,4.47.4.24,0,.47,0,.7,0,.6,0,1.14.38,1.36.94,1.38,3.63,2.15,7.41,2.3,11.25.01.37-.11.72-.34.99.1,1.62-.06,3.24-.46,4.83-.16.65-.75,1.1-1.42,1.1H0v-2.93h12.89c.19-1.19.22-2.4.08-3.59-.03-.24,0-.49.09-.71.06-.14.14-.3.26-.45-.19-2.9-.77-5.76-1.73-8.52-2.14,0-4.32-.06-6.03-.97-.34-.18-.59-.48-.7-.85-2.89-9.12-.02-26.73,1.81-37.21-1.85-.31-3.19-1.13-4.01-2.44-2.33-3.74.74-10.19,2.99-14.9.73-1.54,1.56-3.27,1.62-3.83.08-.74.71-1.3,1.45-1.3,1.03,0,1.34-1.54,1.66-5,.28-3.09.6-6.6,2.97-8.34,1.33-.98,3.1-1.24,5.27-.77,4.38.96,4.45,5.69,4.5,9.14.02,1.61.05,3.82.63,4.28.16.13.54.14,1.03.04.44-.09.91.03,1.25.32.32.28.51.68.51,1.1,2.92,1.64,4.73,4.92,5.03,9.22.3,4.31-1.06,9.5-4.22,11.91,2,7.25,1.54,15.04,1.09,22.57-.3,4.94-.6,10.04-.17,14.81.05.58-.25,1.14-.76,1.42-.49.27-1.03.32-1.5.34-.66,5-.03,6.7.75,8.83.48,1.28,1,2.71,1.36,4.91h10.27c6.03-2.4,5.68-12.54,5.39-20.7-.04-1.03-.07-2.02-.09-2.96-1.35.06-2.98-.04-4.08-.34-.66-.18-1.11-.8-1.08-1.49l1.07-20.88c.14-2.69-1.05-4.96-2.31-7.37-1.08-2.07-2.2-4.21-2.6-6.78-.52-3.34.17-4.69,1.2-6.23.5-.74.96-1.44,1.23-2.85-.12-.24-.4-.68-.6-.99-.71-1.1-1.6-2.46-1.55-3.88.07-2.01,1-3.51,2.55-4.14,1.65-.67,3.69-.17,5.18,1.26,1.6,1.54,2.24,3.77,1.84,6.2,1.43.33,2.67,1.05,3.66,2.15,1.6-1.43,1.15-3.07.19-5.9-.93-2.74-2.09-6.15.38-9.39,1.93-2.52,3.9-3.65,5.86-3.36,3.69.56,5.65,5.93,7.09,9.85.19.53.37,1.02.54,1.44,1.38,3.54,2.01,6.63,2.67,9.9.4,1.97.81,4.01,1.41,6.22.84,3.1-.94,5.88-2.51,8.33-1.06,1.67-2.07,3.24-2.18,4.66v.21c.18,4.4.23,5.44-.01,20.65-.01.64-.44,1.2-1.04,1.38.01,1.69,0,3.29,0,4.84-.05,7.87-.08,13.55,3,16.65,2.22,2.24,6.28,3.35,12.7,3.49-.05-6.41-6.27-13.36-7.53-14.28-.28-.15-.51-.38-.65-.67-.17-.35-.19-.76-.05-1.12,4.07-11.29,4.12-32.89,1.62-45.22-.23-1.13-.53-2.04-.82-2.92-.72-2.14-1.39-4.15-.33-7.82.68-2.38,2.8-3.23,4.51-3.92,1.18-.48,2.2-.89,2.5-1.6.26-.62.1-1.68-.46-3.06-1.99-4.91-.6-8.23,1.36-9.7,1.88-1.42,4.41-1.38,6.28.09,1.13.89,4.45,4.41,1.07,13.13,2.41,1.09,6.21-.99,9.29-3.23.14-2.35.02-4.14-.1-5.87-.16-2.3-.31-4.48.26-7.37.12-.59.58-1.05,1.18-1.16,3.41-.61,5.91-.05,7.42,1.69,1.65,1.88,1.88,4.92.67,8.78-.33,2.6,1.61,3.38,5.74,4.42,1.4.35,2.73.68,3.81,1.23.25.13.47.33.61.57,1.8,3.1,2.5,6.33,3.19,9.46.32,1.47.65,2.98,1.09,4.48.2.67-.11,1.39-.73,1.71-.36.18-.55.31-.75.49,2.04,8.97.19,19.97-1.6,30.61-1.55,9.22-3.16,18.76-2.13,26.6.07.52-.15,1.03-.56,1.35-.25.19-.46.37-.64.55.09.19.19.39.28.59.34.71.74,1.54,1.06,2.23l13.16.08c-.5-3.98-1.43-8.49-2.2-12.2-.32-1.55-.62-3-.85-4.23-.32-1.69-.22-3.04-.14-4.13.14-1.84.19-2.53-1.61-3.88-3.68-2.76-3.16-6.03-2.61-9.5.07-.42.14-.86.21-1.32.06-.45.13-.9.19-1.36.77-5.54,1.73-12.42,7.51-15.03.45-.2,1.02-.53,1.17-.94.24-.64-.36-1.89-.88-3-.82-1.74-1.84-3.9-.86-5.96.8-1.67,2.67-2.82,5.9-3.6,2.42-.59,4.14-.34,5.23.76,1.76,1.76,1.02,4.79.37,7.46-.21.88-.53,2.16-.51,2.7,2.23,1.87,9.21,9.51,8.9,15.15-.1,1.81-.95,3.26-2.47,4.2-.2.12-1.19.96-1.32,5.61-.09,3.09.23,6.54.46,9.07.1,1.07.17,1.92.2,2.51.03.7-.36,1.31-1.06,2.41-.73,1.14-1.82,2.86-1.93,4.09l-.99,11.17,8.01-.07c4.67-9.62,2.54-34.52,1.38-48.06-.12-1.35-.22-2.59-.31-3.7-3.09.36-4.7-.94-5.54-2.2-3.04-4.62.85-14.69,3.37-17.88,2.19-2.78,3.96-4.09,5.26-5.05,1.89-1.4,2.17-1.61,1.14-6.26-.58-2.59.31-5.05,2.36-6.6,2.03-1.53,4.76-1.8,6.82-.68,1.31.72,3.47,2.61,3.13,7.27-.33,4.52.62,5.09,2.93,6.46,1.87,1.12,4.43,2.65,6.96,6.66,1.54,2.44,4.85,10.17,1.89,13.53-1.14,1.3-2.88,1.64-5.17,1.01,1.62,16.2.69,35.13-2.6,52.43.15.31.32.6.49.91.35.62.72,1.29,1.01,2.15h114.63v2.93h-115.76c-.71,0-1.31-.51-1.44-1.2-.18-1-.54-1.64-.99-2.45-.27-.48-.55-.98-.81-1.59-.11-.27-.14-.56-.09-.85,3.47-17.99,4.35-37.8,2.4-54.37-.06-.53.17-1.04.6-1.36.43-.31.99-.36,1.47-.14,2.03.95,3.56,1.17,4.07.58,1.22-1.39-.21-6.92-2.17-10.03-2.16-3.42-4.2-4.64-5.99-5.71-2.99-1.79-4.78-3.3-4.35-9.19.17-2.24-.41-3.83-1.61-4.49-1.05-.57-2.55-.39-3.66.45-.66.5-1.71,1.64-1.27,3.63,1.34,5.99.55,7.17-2.25,9.24-1.16.86-2.75,2.04-4.7,4.51-2.23,2.83-5.19,11.48-3.22,14.46.24.37.97,1.47,4.04.64.42-.11.87-.03,1.22.22.36.25.58.65.61,1.08.11,1.51.26,3.27.44,5.31,1.3,15.21,3.49,40.67-2.14,50.49-.26.45-.74.73-1.26.74l-10.5.1h-.01Z" style="fill: #1b657c; stroke-width: 0px;"/>
  </g>
</svg>