<?xml version="1.0" encoding="UTF-8"?>
<svg id="a" data-name="Layer 1" xmlns="http://www.w3.org/2000/svg" viewBox="0 0 510.24 39.69">
  <path d="m55.12,39.68c-.17,0-.32-.07-.44-.19-.11-.12-.17-.29-.15-.45l.46-5.17c.07-.78.59-1.59.96-2.19.09-.14.19-.3.24-.39-.01-.21-.04-.51-.07-.86-.28-3.12-.45-6.23.91-7.06.28-.17.42-.41.44-.76.09-1.58-2.23-4.43-3.24-5.21-.57-.44-.37-1.27-.13-2.24.14-.58.4-1.66.16-1.9-.09-.09-.4-.14-1,0-1.19.29-1.51.63-1.6.82-.16.33.1.87.35,1.39.31.66.66,1.4.4,2.13-.16.44-.53.8-1.1,1.05-1.74.79-2.05,3.02-2.35,5.17-.03.19-.05.37-.08.56-.03.19-.06.37-.08.55-.23,1.44-.29,2.05.6,2.71,1.25.93,1.18,1.78,1.12,2.61-.03.41-.06.83.04,1.36.09.49.21,1.07.34,1.69.36,1.74.81,3.9.98,5.72.02.17-.04.33-.15.46-.11.12-.27.2-.44.19l-6.38-.04c-.24,0-.46-.15-.55-.37-.1-.25-.36-.8-.56-1.2-.15-.31-.24-.49-.28-.58-.07-.16-.06-.34.02-.5.13-.25.3-.44.48-.61-.36-3.28.28-7.1.91-10.8.73-4.31,1.48-8.77.59-12.22-.05-.19,0-.39.13-.54.16-.18.28-.31.44-.43-.13-.5-.24-.99-.34-1.46-.26-1.17-.5-2.28-1.07-3.33-.31-.13-.72-.23-1.14-.34-1.41-.35-3.53-.89-3.2-3.15,0-.03.01-.06.02-.09.36-1.14.36-2.03-.02-2.46-.32-.37-.93-.41-1.5-.35-.12.82-.07,1.5-.02,2.27.05.77.11,1.65.02,2.82-.01.17-.1.33-.24.43-2.6,1.95-4.56,2.34-5.82,1.17-.18-.17-.24-.44-.14-.67,1.06-2.45.75-3.86.11-4.37-.34-.26-.77-.27-1.1-.02-.44.33-.72,1.17-.17,2.54.36.88.42,1.59.18,2.15-.31.74-1.03,1.03-1.66,1.28-.63.25-1.02.43-1.13.82-.33,1.13-.15,1.66.12,2.47.12.37.26.79.37,1.32,1.02,5.01,1.01,13.71-.57,18.56,1.15,1.07,3.62,4.21,3.23,7.17-.04.29-.29.51-.59.51-3.31,0-5.32-.55-6.54-1.77-1.6-1.61-1.58-4.11-1.56-7.58,0-.75,0-1.52,0-2.34,0-.27.18-.51.43-.58.09-5.75.07-6.19,0-7.9v-.12s0-.04,0-.06c.05-.89.57-1.7,1.07-2.49.55-.86,1.07-1.68.87-2.43-.25-.93-.42-1.78-.59-2.59-.26-1.27-.5-2.48-1.02-3.81-.07-.18-.14-.39-.23-.61-.4-1.08-1.13-3.1-1.94-3.22-.32-.05-.77.27-1.25.91-.58.75-.37,1.52.03,2.7.42,1.23.99,2.91-1.03,4.09-.28.16-.64.07-.81-.2-.37-.6-.87-.89-1.59-.89-.19,0-.37-.1-.48-.25-.11-.16-.14-.36-.07-.54.41-1.15-.05-1.76-.26-1.97-.26-.25-.6-.36-.83-.27-.23.09-.28.39-.29.62,0,.2.27.63.44.88.27.41.5.77.43,1.15-.14.88-.45,1.34-.7,1.7-.28.42-.46.68-.3,1.68.13.84.52,1.59.93,2.38.56,1.07,1.14,2.18,1.07,3.6l-.41,7.93c.48.05,1.06.03,1.32-.03.18-.04.36,0,.51.11.14.11.23.28.23.47,0,.55.02,1.17.04,1.82.13,3.73.29,8.38-3.06,9.57-.06.02-.13.03-.2.03h-4.78c-.3,0-.55-.23-.59-.53-.12-1.06-.34-1.66-.56-2.23-.39-1.04-.72-1.94-.3-4.64.04-.24.22-.43.45-.49.12-.03.23-.04.34-.04-.11-1.84,0-3.75.11-5.6.18-3.1.38-6.3-.52-9.15-.09-.28.04-.58.3-.71.94-.47,1.61-2.24,1.49-3.95-.05-.72-.33-2.46-1.84-2.97-.13-.05-.24-.13-.32-.25-.21-.05-.41-.13-.57-.27-.67-.54-.68-1.56-.7-2.64-.02-1.43-.09-2.39-.89-2.56-.53-.11-.93-.08-1.18.11-.53.39-.63,1.53-.72,2.53-.11,1.23-.25,2.72-1.38,3.04-.12.36-.34.82-.65,1.46-.7,1.47-1.87,3.94-1.27,4.9.2.32.64.48,1.32.49.17,0,.34.08.45.21.11.13.16.31.13.48-.69,3.94-1.96,11.19-.96,14.89.48.16,1.18.16,1.81.16.1,0,.19,0,.28,0,.24,0,.46.15.55.38.56,1.47.87,3,.93,4.56,0,.15-.04.29-.14.4.04.65-.02,1.31-.19,1.96-.07.26-.3.45-.57.45H0v-1.18h5.22c.08-.48.09-.97.03-1.45-.01-.1,0-.2.04-.29.02-.06.06-.12.11-.18-.08-1.17-.31-2.33-.7-3.45-.87,0-1.75-.02-2.44-.39-.14-.07-.24-.2-.28-.34-1.17-3.69,0-10.82.73-15.07-.75-.13-1.29-.46-1.62-.99-.94-1.51.3-4.13,1.21-6.03.3-.62.63-1.32.66-1.55.03-.3.29-.53.59-.53.42,0,.54-.62.67-2.02.11-1.25.24-2.67,1.2-3.38.54-.4,1.26-.5,2.13-.31,1.77.39,1.8,2.3,1.82,3.7,0,.65.02,1.55.25,1.73.06.05.22.06.42.02.18-.04.37.01.51.13.13.11.21.27.21.45,1.18.67,1.92,1.99,2.04,3.74.12,1.74-.43,3.85-1.71,4.82.81,2.94.62,6.09.44,9.14-.12,2-.24,4.07-.07,6,.02.24-.1.46-.31.57-.2.11-.42.13-.61.14-.27,2.02-.01,2.71.31,3.57.19.52.41,1.1.55,1.99h4.16c2.44-.97,2.3-5.08,2.18-8.38-.01-.42-.03-.82-.04-1.2-.55.02-1.21-.02-1.65-.14-.27-.07-.45-.32-.44-.6l.43-8.45c.06-1.09-.43-2.01-.94-2.98-.44-.84-.89-1.7-1.05-2.74-.21-1.35.07-1.9.49-2.52.2-.3.39-.58.5-1.15-.05-.1-.16-.28-.24-.4-.29-.44-.65-1-.63-1.57.03-.81.41-1.42,1.03-1.67.67-.27,1.49-.07,2.1.51.65.62.91,1.53.74,2.51.58.13,1.08.43,1.48.87.65-.58.47-1.24.08-2.39-.38-1.11-.85-2.49.15-3.8.78-1.02,1.58-1.48,2.37-1.36,1.49.23,2.29,2.4,2.87,3.99.08.21.15.41.22.58.56,1.43.81,2.68,1.08,4.01.16.8.33,1.62.57,2.52.34,1.26-.38,2.38-1.02,3.37-.43.67-.84,1.31-.88,1.89v.08c.07,1.78.09,2.2,0,8.36,0,.26-.18.48-.42.56,0,.68,0,1.33,0,1.96-.02,3.19-.03,5.49,1.22,6.74.9.91,2.54,1.36,5.14,1.41-.02-2.6-2.54-5.41-3.05-5.78-.11-.06-.21-.16-.26-.27-.07-.14-.08-.31-.02-.45,1.65-4.57,1.67-13.32.66-18.31-.09-.46-.21-.83-.33-1.18-.29-.86-.56-1.68-.13-3.17.28-.96,1.13-1.31,1.82-1.59.48-.19.89-.36,1.01-.65.11-.25.04-.68-.19-1.24-.81-1.99-.24-3.33.55-3.93.76-.57,1.78-.56,2.54.04.46.36,1.8,1.79.43,5.31.97.44,2.51-.4,3.76-1.31.06-.95,0-1.68-.04-2.38-.06-.93-.12-1.81.11-2.99.05-.24.24-.43.48-.47,1.38-.25,2.39-.02,3.01.68.67.76.76,1.99.27,3.56-.13,1.05.65,1.37,2.32,1.79.57.14,1.1.28,1.54.5.1.05.19.13.25.23.73,1.26,1.01,2.56,1.29,3.83.13.59.26,1.21.44,1.81.08.27-.04.56-.29.69-.14.07-.22.13-.3.2.83,3.63.08,8.08-.65,12.39-.63,3.73-1.28,7.6-.86,10.77.03.21-.06.42-.23.55-.1.08-.19.15-.26.22.04.08.08.16.11.24.14.29.3.62.43.9l5.33.03c-.2-1.61-.58-3.44-.89-4.94-.13-.63-.25-1.22-.34-1.71-.13-.69-.09-1.23-.06-1.67.06-.75.08-1.03-.65-1.57-1.49-1.12-1.28-2.44-1.06-3.85.03-.17.06-.35.08-.54.03-.18.05-.36.08-.55.31-2.24.7-5.03,3.04-6.09.18-.08.41-.22.47-.38.1-.26-.14-.77-.36-1.21-.33-.7-.75-1.58-.35-2.41.32-.68,1.08-1.14,2.39-1.46.98-.24,1.67-.14,2.12.31.71.71.41,1.94.15,3.02-.09.36-.21.88-.2,1.09.9.76,3.73,3.85,3.6,6.14-.04.73-.39,1.32-1,1.7-.08.05-.48.39-.54,2.27-.03,1.25.09,2.65.18,3.67.04.43.07.78.08,1.01.01.28-.14.53-.43.98-.29.46-.74,1.16-.78,1.65l-.4,4.52,3.24-.03c1.89-3.9,1.03-13.98.56-19.46-.05-.55-.09-1.05-.13-1.5-1.25.15-1.9-.38-2.24-.89-1.23-1.87.34-5.95,1.36-7.24.89-1.12,1.6-1.66,2.13-2.05.76-.57.88-.65.46-2.53-.23-1.05.12-2.05.96-2.67.82-.62,1.93-.73,2.76-.28.53.29,1.4,1.06,1.27,2.94-.13,1.83.25,2.06,1.19,2.62.76.45,1.79,1.07,2.82,2.7.62.99,1.96,4.12.77,5.48-.46.53-1.17.66-2.09.41.66,6.56.28,14.23-1.05,21.23.06.13.13.24.2.37.14.25.29.52.41.87h441.87v1.18H67.9c-.29,0-.53-.21-.58-.49-.07-.41-.22-.66-.4-.99-.11-.19-.22-.4-.33-.64-.05-.11-.06-.23-.04-.34,1.41-7.28,1.76-15.31.97-22.01-.03-.21.07-.42.24-.55.17-.13.4-.15.6-.06.82.38,1.44.47,1.65.24.5-.56-.08-2.8-.88-4.06-.87-1.39-1.7-1.88-2.43-2.31-1.21-.72-1.93-1.33-1.76-3.72.07-.91-.16-1.55-.65-1.82-.42-.23-1.03-.16-1.48.18-.27.2-.69.66-.51,1.47.54,2.43.22,2.9-.91,3.74-.47.35-1.11.83-1.9,1.83-.9,1.14-2.1,4.65-1.31,5.85.1.15.39.6,1.64.26.17-.05.35-.01.5.09.14.1.24.26.25.44.05.61.11,1.32.18,2.15.53,6.16,1.41,16.47-.87,20.44-.1.18-.3.3-.51.3l-4.25.04h0Z" style="fill: #1a657c; stroke-width: 0px;"/>
</svg>